# xmcd
#
# Track frame offsets: 
#        150
#        12566
#        24670
#        42941
#        59310
#        74453
#        91641
#        104068
#        115488
#        125576
#        135134
#        141570
#        151297
#        166562
#        185441
#        199954
#        252751
#        276144
#        290601
#
# Disc length: 4041 seconds
#
# Revision: 1
# Processed by: cddbd v1.5.2PL0 Copyright (c) Steve Scherf et al.
# Submitted via: ExactAudioCopyFreeDBPlugin 1.0
#
DISCID=170fc713
DTITLE=Hear Me Howling! Blues, Ballads, and Beyond - Hear Me Howling!  C
DTITLE=D 1
DYEAR=2010
DGENRE=Blues
TTITLE0=Jesse Fuller  - Hump In My Back (Unreleased)
TTITLE1=Jesse Fuller - Brother Low Down (Unreleased)
TTITLE2=Skid Band  - Berkeley`s Junko Partner (Unreleased)
TTITLE3=Skid Band  - Tight Like That (Unreleased)
TTITLE4=Bob Mielke`s Bearcats - Moose March (1st Time on CD)
TTITLE5=Big Joe Williams  - Highway 49 (Unreleased)
TTITLE6=Big Joe Williams  - Oakland Blues (Unreleased)
TTITLE7=Big Joe Williams  - Greystone ( Alameda County Jail ) Blues
TTITLE8=K.C.Douglas and Band - I Know You Didn`t Want Me (1st Time on CD
TTITLE8=)
TTITLE9=K.C.Douglas and Band  - Night Shirt Blues
TTITLE10=K.C.Douglas and Band  - Stop Time (Unreleased)
TTITLE11=K.C.Douglas and Band  - Hear Me Howling
TTITLE12=Lonnie Johnson  - Stand Alone Blues (Unreleased)
TTITLE13=Lonnie Johnson - Brenda (Unreleased)
TTITLE14=Sonny Terry  - Changed The Lock On My Door (Unreleased)
TTITLE15=Bukka White -  Bald Eagle Train ( Take 1 )  (Unreleased)
TTITLE16=Lightning Hopkins  - Tom Moore`s Farm (Unreleased)
TTITLE17=Lightning Hopkins  - Up On Telegraph ( Avenue )
TTITLE18=Mercy Dee  - Lady Luck
EXTD=YEAR: 2010
EXTT0=
EXTT1=
EXTT2=
EXTT3=
EXTT4=
EXTT5=
EXTT6=
EXTT7=
EXTT8=
EXTT9=
EXTT10=
EXTT11=
EXTT12=
EXTT13=
EXTT14=
EXTT15=
EXTT16=
EXTT17=
EXTT18=
PLAYORDER=
